<svg width="450" height="80" viewBox="0 0 450 80" fill="none" xmlns="http://www.w3.org/2000/svg">
<path d="M87.18 57H97.74V58.7H89.16V62.7H93.52C95.1867 62.7 96.4533 63.0467 97.32 63.74C98.1867 64.4333 98.62 65.4333 98.62 66.74C98.62 68.1133 98.1467 69.1667 97.2 69.9C96.2667 70.6333 94.9267 71 93.18 71H87.18V57ZM93.1 69.42C94.2467 69.42 95.12 69.2 95.72 68.76C96.32 68.32 96.62 67.6733 96.62 66.82C96.62 65.1267 95.4467 64.28 93.1 64.28H89.16V69.42H93.1ZM107.109 60.3C108.136 60.3 109.056 60.5267 109.869 60.98C110.682 61.4333 111.316 62.0667 111.769 62.88C112.236 63.6933 112.469 64.6333 112.469 65.7C112.469 66.7667 112.236 67.7133 111.769 68.54C111.316 69.3533 110.682 69.9867 109.869 70.44C109.056 70.8933 108.136 71.12 107.109 71.12C106.349 71.12 105.649 70.9733 105.009 70.68C104.382 70.3867 103.849 69.96 103.409 69.4V74.88H101.489V60.4H103.329V62.08C103.756 61.4933 104.296 61.0533 104.949 60.76C105.602 60.4533 106.322 60.3 107.109 60.3ZM106.949 69.44C107.629 69.44 108.236 69.2867 108.769 68.98C109.316 68.66 109.742 68.22 110.049 67.66C110.369 67.0867 110.529 66.4333 110.529 65.7C110.529 64.9667 110.369 64.32 110.049 63.76C109.742 63.1867 109.316 62.7467 108.769 62.44C108.236 62.1333 107.629 61.98 106.949 61.98C106.282 61.98 105.676 62.14 105.129 62.46C104.596 62.7667 104.169 63.2 103.849 63.76C103.542 64.32 103.389 64.9667 103.389 65.7C103.389 66.4333 103.542 67.0867 103.849 67.66C104.156 68.22 104.582 68.66 105.129 68.98C105.676 69.2867 106.282 69.44 106.949 69.44ZM119.798 71.12C118.745 71.12 117.798 70.8867 116.958 70.42C116.118 69.9533 115.458 69.3133 114.978 68.5C114.512 67.6733 114.278 66.74 114.278 65.7C114.278 64.66 114.512 63.7333 114.978 62.92C115.458 62.0933 116.118 61.4533 116.958 61C117.798 60.5333 118.745 60.3 119.798 60.3C120.852 60.3 121.792 60.5333 122.618 61C123.458 61.4533 124.112 62.0933 124.578 62.92C125.058 63.7333 125.298 64.66 125.298 65.7C125.298 66.74 125.058 67.6733 124.578 68.5C124.112 69.3133 123.458 69.9533 122.618 70.42C121.792 70.8867 120.852 71.12 119.798 71.12ZM119.798 69.44C120.478 69.44 121.085 69.2867 121.618 68.98C122.165 68.66 122.592 68.22 122.898 67.66C123.205 67.0867 123.358 66.4333 123.358 65.7C123.358 64.9667 123.205 64.32 122.898 63.76C122.592 63.1867 122.165 62.7467 121.618 62.44C121.085 62.1333 120.478 61.98 119.798 61.98C119.118 61.98 118.505 62.1333 117.958 62.44C117.425 62.7467 116.998 63.1867 116.678 63.76C116.372 64.32 116.218 64.9667 116.218 65.7C116.218 66.4333 116.372 67.0867 116.678 67.66C116.998 68.22 117.425 68.66 117.958 68.98C118.505 69.2867 119.118 69.44 119.798 69.44ZM128.071 60.4H129.991V64.9H136.031V60.4H137.951V71H136.031V66.56H129.991V71H128.071V60.4ZM151.064 60.3C152.091 60.3 153.011 60.5333 153.824 61C154.638 61.4533 155.278 62.0933 155.744 62.92C156.211 63.7333 156.444 64.66 156.444 65.7C156.444 66.74 156.211 67.6733 155.744 68.5C155.278 69.3133 154.638 69.9533 153.824 70.42C153.011 70.8867 152.091 71.12 151.064 71.12C150.131 71.12 149.284 70.9267 148.524 70.54C147.764 70.1533 147.138 69.6133 146.644 68.92C146.164 68.2133 145.864 67.4133 145.744 66.52H143.604V71H141.684V60.4H143.604V64.74H145.764C145.898 63.86 146.204 63.0867 146.684 62.42C147.178 61.74 147.798 61.22 148.544 60.86C149.304 60.4867 150.144 60.3 151.064 60.3ZM151.064 69.44C151.718 69.44 152.304 69.2867 152.824 68.98C153.358 68.6733 153.778 68.24 154.084 67.68C154.391 67.1067 154.544 66.4467 154.544 65.7C154.544 64.9667 154.391 64.32 154.084 63.76C153.778 63.1867 153.358 62.7467 152.824 62.44C152.304 62.1333 151.718 61.98 151.064 61.98C150.411 61.98 149.818 62.1333 149.284 62.44C148.751 62.7467 148.331 63.1867 148.024 63.76C147.731 64.32 147.584 64.9667 147.584 65.7C147.584 66.4467 147.731 67.1067 148.024 67.68C148.331 68.24 148.751 68.6733 149.284 68.98C149.818 69.2867 150.411 69.44 151.064 69.44ZM166.424 65.5C167.797 65.8467 168.484 66.7067 168.484 68.08C168.484 69.0133 168.13 69.7333 167.424 70.24C166.73 70.7467 165.69 71 164.304 71H159.204V60.4H164.124C165.377 60.4 166.357 60.64 167.064 61.12C167.77 61.5867 168.124 62.2533 168.124 63.12C168.124 63.68 167.97 64.1667 167.664 64.58C167.37 64.98 166.957 65.2867 166.424 65.5ZM161.084 64.96H163.964C164.697 64.96 165.25 64.8267 165.624 64.56C166.01 64.2933 166.204 63.9067 166.204 63.4C166.204 62.3867 165.457 61.88 163.964 61.88H161.084V64.96ZM164.164 69.52C164.964 69.52 165.564 69.3933 165.964 69.14C166.364 68.8867 166.564 68.4933 166.564 67.96C166.564 67.4133 166.377 67.0067 166.004 66.74C165.644 66.4733 165.07 66.34 164.284 66.34H161.084V69.52H164.164ZM175.269 60.3C176.736 60.3 177.856 60.66 178.629 61.38C179.416 62.1 179.809 63.1733 179.809 64.6V71H177.989V69.6C177.669 70.0933 177.209 70.4733 176.609 70.74C176.022 70.9933 175.322 71.12 174.509 71.12C173.322 71.12 172.369 70.8333 171.649 70.26C170.942 69.6867 170.589 68.9333 170.589 68C170.589 67.0667 170.929 66.32 171.609 65.76C172.289 65.1867 173.369 64.9 174.849 64.9H177.889V64.52C177.889 63.6933 177.649 63.06 177.169 62.62C176.689 62.18 175.982 61.96 175.049 61.96C174.422 61.96 173.809 62.0667 173.209 62.28C172.609 62.48 172.102 62.7533 171.689 63.1L170.889 61.66C171.436 61.22 172.089 60.8867 172.849 60.66C173.609 60.42 174.416 60.3 175.269 60.3ZM174.829 69.64C175.562 69.64 176.196 69.48 176.729 69.16C177.262 68.8267 177.649 68.36 177.889 67.76V66.28H174.929C173.302 66.28 172.489 66.8267 172.489 67.92C172.489 68.4533 172.696 68.8733 173.109 69.18C173.522 69.4867 174.096 69.64 174.829 69.64ZM183.266 60.4H185.186V64.9H191.226V60.4H193.146V71H191.226V66.56H185.186V71H183.266V60.4ZM196.88 60.4H198.8V64.9H204.84V60.4H206.76V71H204.84V66.56H198.8V71H196.88V60.4ZM218.993 60.4V71H217.273V67.64H214.193H213.973L211.653 71H209.593L212.173 67.38C211.373 67.14 210.759 66.7467 210.333 66.2C209.906 65.64 209.693 64.9467 209.693 64.12C209.693 62.9067 210.106 61.9867 210.933 61.36C211.759 60.72 212.899 60.4 214.353 60.4H218.993ZM211.653 64.18C211.653 64.8867 211.873 65.4133 212.313 65.76C212.766 66.0933 213.439 66.26 214.333 66.26H217.273V62.08H214.413C212.573 62.08 211.653 62.78 211.653 64.18ZM232.73 71.12C231.65 71.12 230.683 70.8867 229.83 70.42C228.99 69.9533 228.33 69.3133 227.85 68.5C227.37 67.6733 227.13 66.74 227.13 65.7C227.13 64.66 227.37 63.7333 227.85 62.92C228.33 62.0933 228.99 61.4533 229.83 61C230.683 60.5333 231.65 60.3 232.73 60.3C233.69 60.3 234.543 60.4933 235.29 60.88C236.05 61.2667 236.637 61.8267 237.05 62.56L235.59 63.5C235.257 62.9933 234.843 62.6133 234.35 62.36C233.857 62.1067 233.31 61.98 232.71 61.98C232.017 61.98 231.39 62.1333 230.83 62.44C230.283 62.7467 229.85 63.1867 229.53 63.76C229.223 64.32 229.07 64.9667 229.07 65.7C229.07 66.4467 229.223 67.1067 229.53 67.68C229.85 68.24 230.283 68.6733 230.83 68.98C231.39 69.2867 232.017 69.44 232.71 69.44C233.31 69.44 233.857 69.3133 234.35 69.06C234.843 68.8067 235.257 68.4267 235.59 67.92L237.05 68.84C236.637 69.5733 236.05 70.14 235.29 70.54C234.543 70.9267 233.69 71.12 232.73 71.12ZM243.316 60.3C244.782 60.3 245.902 60.66 246.676 61.38C247.462 62.1 247.856 63.1733 247.856 64.6V71H246.036V69.6C245.716 70.0933 245.256 70.4733 244.656 70.74C244.069 70.9933 243.369 71.12 242.556 71.12C241.369 71.12 240.416 70.8333 239.696 70.26C238.989 69.6867 238.636 68.9333 238.636 68C238.636 67.0667 238.976 66.32 239.656 65.76C240.336 65.1867 241.416 64.9 242.896 64.9H245.936V64.52C245.936 63.6933 245.696 63.06 245.216 62.62C244.736 62.18 244.029 61.96 243.096 61.96C242.469 61.96 241.856 62.0667 241.256 62.28C240.656 62.48 240.149 62.7533 239.736 63.1L238.936 61.66C239.482 61.22 240.136 60.8867 240.896 60.66C241.656 60.42 242.462 60.3 243.316 60.3ZM242.876 69.64C243.609 69.64 244.242 69.48 244.776 69.16C245.309 68.8267 245.696 68.36 245.936 67.76V66.28H242.976C241.349 66.28 240.536 66.8267 240.536 67.92C240.536 68.4533 240.742 68.8733 241.156 69.18C241.569 69.4867 242.142 69.64 242.876 69.64ZM251.313 60.4H253.233V64.9H259.273V60.4H261.193V71H259.273V66.56H253.233V71H251.313V60.4ZM268.706 60.3C270.173 60.3 271.293 60.66 272.066 61.38C272.853 62.1 273.246 63.1733 273.246 64.6V71H271.426V69.6C271.106 70.0933 270.646 70.4733 270.046 70.74C269.46 70.9933 268.76 71.12 267.946 71.12C266.76 71.12 265.806 70.8333 265.086 70.26C264.38 69.6867 264.026 68.9333 264.026 68C264.026 67.0667 264.366 66.32 265.046 65.76C265.726 65.1867 266.806 64.9 268.286 64.9H271.326V64.52C271.326 63.6933 271.086 63.06 270.606 62.62C270.126 62.18 269.42 61.96 268.486 61.96C267.86 61.96 267.246 62.0667 266.646 62.28C266.046 62.48 265.54 62.7533 265.126 63.1L264.326 61.66C264.873 61.22 265.526 60.8867 266.286 60.66C267.046 60.42 267.853 60.3 268.706 60.3ZM268.266 69.64C269 69.64 269.633 69.48 270.166 69.16C270.7 68.8267 271.086 68.36 271.326 67.76V66.28H268.366C266.74 66.28 265.926 66.8267 265.926 67.92C265.926 68.4533 266.133 68.8733 266.546 69.18C266.96 69.4867 267.533 69.64 268.266 69.64ZM284.604 62.08H280.724V71H278.804V62.08H274.924V60.4H284.604V62.08ZM290.638 71.12C289.585 71.12 288.638 70.8867 287.798 70.42C286.958 69.9533 286.298 69.3133 285.818 68.5C285.352 67.6733 285.118 66.74 285.118 65.7C285.118 64.66 285.352 63.7333 285.818 62.92C286.298 62.0933 286.958 61.4533 287.798 61C288.638 60.5333 289.585 60.3 290.638 60.3C291.692 60.3 292.632 60.5333 293.458 61C294.298 61.4533 294.952 62.0933 295.418 62.92C295.898 63.7333 296.138 64.66 296.138 65.7C296.138 66.74 295.898 67.6733 295.418 68.5C294.952 69.3133 294.298 69.9533 293.458 70.42C292.632 70.8867 291.692 71.12 290.638 71.12ZM290.638 69.44C291.318 69.44 291.925 69.2867 292.458 68.98C293.005 68.66 293.432 68.22 293.738 67.66C294.045 67.0867 294.198 66.4333 294.198 65.7C294.198 64.9667 294.045 64.32 293.738 63.76C293.432 63.1867 293.005 62.7467 292.458 62.44C291.925 62.1333 291.318 61.98 290.638 61.98C289.958 61.98 289.345 62.1333 288.798 62.44C288.265 62.7467 287.838 63.1867 287.518 63.76C287.212 64.32 287.058 64.9667 287.058 65.7C287.058 66.4333 287.212 67.0867 287.518 67.66C287.838 68.22 288.265 68.66 288.798 68.98C289.345 69.2867 289.958 69.44 290.638 69.44ZM304.531 60.3C305.557 60.3 306.477 60.5267 307.291 60.98C308.104 61.4333 308.737 62.0667 309.191 62.88C309.657 63.6933 309.891 64.6333 309.891 65.7C309.891 66.7667 309.657 67.7133 309.191 68.54C308.737 69.3533 308.104 69.9867 307.291 70.44C306.477 70.8933 305.557 71.12 304.531 71.12C303.771 71.12 303.071 70.9733 302.431 70.68C301.804 70.3867 301.271 69.96 300.831 69.4V74.88H298.911V60.4H300.751V62.08C301.177 61.4933 301.717 61.0533 302.371 60.76C303.024 60.4533 303.744 60.3 304.531 60.3ZM304.371 69.44C305.051 69.44 305.657 69.2867 306.191 68.98C306.737 68.66 307.164 68.22 307.471 67.66C307.791 67.0867 307.951 66.4333 307.951 65.7C307.951 64.9667 307.791 64.32 307.471 63.76C307.164 63.1867 306.737 62.7467 306.191 62.44C305.657 62.1333 305.051 61.98 304.371 61.98C303.704 61.98 303.097 62.14 302.551 62.46C302.017 62.7667 301.591 63.2 301.271 63.76C300.964 64.32 300.811 64.9667 300.811 65.7C300.811 66.4333 300.964 67.0867 301.271 67.66C301.577 68.22 302.004 68.66 302.551 68.98C303.097 69.2867 303.704 69.44 304.371 69.44ZM312.68 60.4H314.6V71H312.68V60.4ZM313.64 58.36C313.267 58.36 312.954 58.24 312.7 58C312.46 57.76 312.34 57.4667 312.34 57.12C312.34 56.7733 312.46 56.48 312.7 56.24C312.954 55.9867 313.267 55.86 313.64 55.86C314.014 55.86 314.32 55.98 314.56 56.22C314.814 56.4467 314.94 56.7333 314.94 57.08C314.94 57.44 314.814 57.7467 314.56 58C314.32 58.24 314.014 58.36 313.64 58.36ZM318.304 60.4H320.224V71H318.304V60.4ZM317.844 58.5C317.551 58.5 317.311 58.4067 317.124 58.22C316.938 58.02 316.844 57.78 316.844 57.5C316.844 57.2067 316.938 56.9667 317.124 56.78C317.311 56.58 317.551 56.48 317.844 56.48C318.124 56.48 318.358 56.58 318.544 56.78C318.731 56.9667 318.824 57.2067 318.824 57.5C318.824 57.7933 318.731 58.0333 318.544 58.22C318.358 58.4067 318.124 58.5 317.844 58.5ZM320.684 58.5C320.404 58.5 320.171 58.4067 319.984 58.22C319.798 58.02 319.704 57.78 319.704 57.5C319.704 57.2067 319.798 56.9667 319.984 56.78C320.171 56.58 320.404 56.48 320.684 56.48C320.978 56.48 321.218 56.58 321.404 56.78C321.591 56.9667 321.684 57.2067 321.684 57.5C321.684 57.7933 321.591 58.0333 321.404 58.22C321.218 58.4067 320.978 58.5 320.684 58.5ZM331.15 65.5C332.524 65.8467 333.21 66.7067 333.21 68.08C333.21 69.0133 332.857 69.7333 332.15 70.24C331.457 70.7467 330.417 71 329.03 71H323.93V60.4H328.85C330.104 60.4 331.084 60.64 331.79 61.12C332.497 61.5867 332.85 62.2533 332.85 63.12C332.85 63.68 332.697 64.1667 332.39 64.58C332.097 64.98 331.684 65.2867 331.15 65.5ZM325.81 64.96H328.69C329.424 64.96 329.977 64.8267 330.35 64.56C330.737 64.2933 330.93 63.9067 330.93 63.4C330.93 62.3867 330.184 61.88 328.69 61.88H325.81V64.96ZM328.89 69.52C329.69 69.52 330.29 69.3933 330.69 69.14C331.09 68.8867 331.29 68.4933 331.29 67.96C331.29 67.4133 331.104 67.0067 330.73 66.74C330.37 66.4733 329.797 66.34 329.01 66.34H325.81V69.52H328.89ZM349.487 62.08H345.607V71H343.687V62.08H339.807V60.4H349.487V62.08ZM355.23 60.3C356.697 60.3 357.817 60.66 358.59 61.38C359.377 62.1 359.77 63.1733 359.77 64.6V71H357.95V69.6C357.63 70.0933 357.17 70.4733 356.57 70.74C355.983 70.9933 355.283 71.12 354.47 71.12C353.283 71.12 352.33 70.8333 351.61 70.26C350.903 69.6867 350.55 68.9333 350.55 68C350.55 67.0667 350.89 66.32 351.57 65.76C352.25 65.1867 353.33 64.9 354.81 64.9H357.85V64.52C357.85 63.6933 357.61 63.06 357.13 62.62C356.65 62.18 355.943 61.96 355.01 61.96C354.383 61.96 353.77 62.0667 353.17 62.28C352.57 62.48 352.063 62.7533 351.65 63.1L350.85 61.66C351.397 61.22 352.05 60.8867 352.81 60.66C353.57 60.42 354.377 60.3 355.23 60.3ZM354.79 69.64C355.523 69.64 356.157 69.48 356.69 69.16C357.223 68.8267 357.61 68.36 357.85 67.76V66.28H354.89C353.263 66.28 352.45 66.8267 352.45 67.92C352.45 68.4533 352.657 68.8733 353.07 69.18C353.483 69.4867 354.057 69.64 354.79 69.64ZM376.398 62.08H370.518V71H368.598V60.4H376.398V62.08ZM382.435 71.12C381.382 71.12 380.435 70.8867 379.595 70.42C378.755 69.9533 378.095 69.3133 377.615 68.5C377.148 67.6733 376.915 66.74 376.915 65.7C376.915 64.66 377.148 63.7333 377.615 62.92C378.095 62.0933 378.755 61.4533 379.595 61C380.435 60.5333 381.382 60.3 382.435 60.3C383.488 60.3 384.428 60.5333 385.255 61C386.095 61.4533 386.748 62.0933 387.215 62.92C387.695 63.7333 387.935 64.66 387.935 65.7C387.935 66.74 387.695 67.6733 387.215 68.5C386.748 69.3133 386.095 69.9533 385.255 70.42C384.428 70.8867 383.488 71.12 382.435 71.12ZM382.435 69.44C383.115 69.44 383.722 69.2867 384.255 68.98C384.802 68.66 385.228 68.22 385.535 67.66C385.842 67.0867 385.995 66.4333 385.995 65.7C385.995 64.9667 385.842 64.32 385.535 63.76C385.228 63.1867 384.802 62.7467 384.255 62.44C383.722 62.1333 383.115 61.98 382.435 61.98C381.755 61.98 381.142 62.1333 380.595 62.44C380.062 62.7467 379.635 63.1867 379.315 63.76C379.008 64.32 378.855 64.9667 378.855 65.7C378.855 66.4333 379.008 67.0867 379.315 67.66C379.635 68.22 380.062 68.66 380.595 68.98C381.142 69.2867 381.755 69.44 382.435 69.44ZM398.217 62.08H394.337V71H392.417V62.08H388.537V60.4H398.217V62.08ZM409.292 65.76C409.292 65.9067 409.278 66.1 409.252 66.34H400.652C400.772 67.2733 401.178 68.0267 401.872 68.6C402.578 69.16 403.452 69.44 404.492 69.44C405.758 69.44 406.778 69.0133 407.552 68.16L408.612 69.4C408.132 69.96 407.532 70.3867 406.812 70.68C406.105 70.9733 405.312 71.12 404.432 71.12C403.312 71.12 402.318 70.8933 401.452 70.44C400.585 69.9733 399.912 69.3267 399.432 68.5C398.965 67.6733 398.732 66.74 398.732 65.7C398.732 64.6733 398.958 63.7467 399.412 62.92C399.878 62.0933 400.512 61.4533 401.312 61C402.125 60.5333 403.038 60.3 404.052 60.3C405.065 60.3 405.965 60.5333 406.752 61C407.552 61.4533 408.172 62.0933 408.612 62.92C409.065 63.7467 409.292 64.6933 409.292 65.76ZM404.052 61.92C403.132 61.92 402.358 62.2 401.732 62.76C401.118 63.32 400.758 64.0533 400.652 64.96H407.452C407.345 64.0667 406.978 63.34 406.352 62.78C405.738 62.2067 404.972 61.92 404.052 61.92ZM421.194 60.4V71H419.274V62.08H414.714L414.594 64.44C414.528 65.8667 414.401 67.06 414.214 68.02C414.028 68.9667 413.721 69.7267 413.294 70.3C412.868 70.8733 412.274 71.16 411.514 71.16C411.168 71.16 410.774 71.1 410.334 70.98L410.454 69.36C410.628 69.4 410.788 69.42 410.934 69.42C411.468 69.42 411.868 69.1867 412.134 68.72C412.401 68.2533 412.574 67.7 412.654 67.06C412.734 66.42 412.808 65.5067 412.874 64.32L413.054 60.4H421.194ZM434.487 65.76C434.487 65.9067 434.474 66.1 434.447 66.34H425.847C425.967 67.2733 426.374 68.0267 427.067 68.6C427.774 69.16 428.647 69.44 429.687 69.44C430.954 69.44 431.974 69.0133 432.747 68.16L433.807 69.4C433.327 69.96 432.727 70.3867 432.007 70.68C431.3 70.9733 430.507 71.12 429.627 71.12C428.507 71.12 427.514 70.8933 426.647 70.44C425.78 69.9733 425.107 69.3267 424.627 68.5C424.16 67.6733 423.927 66.74 423.927 65.7C423.927 64.6733 424.154 63.7467 424.607 62.92C425.074 62.0933 425.707 61.4533 426.507 61C427.32 60.5333 428.234 60.3 429.247 60.3C430.26 60.3 431.16 60.5333 431.947 61C432.747 61.4533 433.367 62.0933 433.807 62.92C434.26 63.7467 434.487 64.6933 434.487 65.76ZM429.247 61.92C428.327 61.92 427.554 62.2 426.927 62.76C426.314 63.32 425.954 64.0533 425.847 64.96H432.647C432.54 64.0667 432.174 63.34 431.547 62.78C430.934 62.2067 430.167 61.92 429.247 61.92ZM437.465 60.4H439.385V68.12L445.885 60.4H447.625V71H445.705V63.28L439.225 71H437.465V60.4ZM442.425 59.02C441.439 59.02 440.672 58.7867 440.125 58.32C439.579 57.84 439.299 57.1533 439.285 56.26H440.585C440.599 56.7533 440.765 57.1533 441.085 57.46C441.419 57.7533 441.859 57.9 442.405 57.9C442.952 57.9 443.392 57.7533 443.725 57.46C444.059 57.1533 444.232 56.7533 444.245 56.26H445.585C445.572 57.1533 445.285 57.84 444.725 58.32C444.165 58.7867 443.399 59.02 442.425 59.02Z" fill="#BD7F5C"/>
<path d="M108.444 13.572L98.826 36H93.408L83.79 13.572H89.25L96.222 30.204L103.404 13.572H108.444ZM118.368 36.294C116.548 36.294 114.77 36.056 113.034 35.58C111.298 35.104 109.912 34.502 108.876 33.774L110.892 29.784C111.9 30.456 113.104 31.002 114.504 31.422C115.932 31.814 117.332 32.01 118.704 32.01C121.84 32.01 123.408 31.184 123.408 29.532C123.408 28.748 123.002 28.202 122.19 27.894C121.406 27.586 120.132 27.292 118.368 27.012C116.52 26.732 115.008 26.41 113.832 26.046C112.684 25.682 111.676 25.052 110.808 24.156C109.968 23.232 109.548 21.958 109.548 20.334C109.548 18.206 110.43 16.512 112.194 15.252C113.986 13.964 116.394 13.32 119.418 13.32C120.958 13.32 122.498 13.502 124.038 13.866C125.578 14.202 126.838 14.664 127.818 15.252L125.802 19.242C123.898 18.122 121.756 17.562 119.376 17.562C117.836 17.562 116.66 17.8 115.848 18.276C115.064 18.724 114.672 19.326 114.672 20.082C114.672 20.922 115.092 21.524 115.932 21.888C116.8 22.224 118.13 22.546 119.922 22.854C121.714 23.134 123.184 23.456 124.332 23.82C125.48 24.184 126.46 24.8 127.272 25.668C128.112 26.536 128.532 27.768 128.532 29.364C128.532 31.464 127.622 33.144 125.802 34.404C123.982 35.664 121.504 36.294 118.368 36.294ZM154.137 24.912C154.137 25.276 154.109 25.794 154.053 26.466H136.455C136.763 28.118 137.561 29.434 138.849 30.414C140.165 31.366 141.789 31.842 143.721 31.842C146.185 31.842 148.215 31.03 149.811 29.406L152.625 32.64C151.617 33.844 150.343 34.754 148.803 35.37C147.263 35.986 145.527 36.294 143.595 36.294C141.131 36.294 138.961 35.804 137.085 34.824C135.209 33.844 133.753 32.486 132.717 30.75C131.709 28.986 131.205 26.998 131.205 24.786C131.205 22.602 131.695 20.642 132.675 18.906C133.683 17.142 135.069 15.77 136.833 14.79C138.597 13.81 140.585 13.32 142.797 13.32C144.981 13.32 146.927 13.81 148.635 14.79C150.371 15.742 151.715 17.1 152.667 18.864C153.647 20.6 154.137 22.616 154.137 24.912ZM142.797 17.52C141.117 17.52 139.689 18.024 138.513 19.032C137.365 20.012 136.665 21.328 136.413 22.98H149.139C148.915 21.356 148.229 20.04 147.081 19.032C145.933 18.024 144.505 17.52 142.797 17.52ZM166.11 36.294C164.29 36.294 162.512 36.056 160.776 35.58C159.04 35.104 157.654 34.502 156.618 33.774L158.634 29.784C159.642 30.456 160.846 31.002 162.246 31.422C163.674 31.814 165.074 32.01 166.446 32.01C169.582 32.01 171.15 31.184 171.15 29.532C171.15 28.748 170.744 28.202 169.932 27.894C169.148 27.586 167.874 27.292 166.11 27.012C164.262 26.732 162.75 26.41 161.574 26.046C160.426 25.682 159.418 25.052 158.55 24.156C157.71 23.232 157.29 21.958 157.29 20.334C157.29 18.206 158.172 16.512 159.936 15.252C161.728 13.964 164.136 13.32 167.16 13.32C168.7 13.32 170.24 13.502 171.78 13.866C173.32 14.202 174.58 14.664 175.56 15.252L173.544 19.242C171.64 18.122 169.498 17.562 167.118 17.562C165.578 17.562 164.402 17.8 163.59 18.276C162.806 18.724 162.414 19.326 162.414 20.082C162.414 20.922 162.834 21.524 163.674 21.888C164.542 22.224 165.872 22.546 167.664 22.854C169.456 23.134 170.926 23.456 172.074 23.82C173.222 24.184 174.202 24.8 175.014 25.668C175.854 26.536 176.274 27.768 176.274 29.364C176.274 31.464 175.364 33.144 173.544 34.404C171.724 35.664 169.246 36.294 166.11 36.294ZM189.364 13.32C192.668 13.32 195.188 14.118 196.924 15.714C198.688 17.282 199.57 19.662 199.57 22.854V36H194.614V33.27C193.97 34.25 193.046 35.006 191.842 35.538C190.666 36.042 189.238 36.294 187.558 36.294C185.878 36.294 184.408 36.014 183.148 35.454C181.888 34.866 180.908 34.068 180.208 33.06C179.536 32.024 179.2 30.862 179.2 29.574C179.2 27.558 179.942 25.948 181.426 24.744C182.938 23.512 185.304 22.896 188.524 22.896H194.32V22.56C194.32 20.992 193.844 19.788 192.892 18.948C191.968 18.108 190.582 17.688 188.734 17.688C187.474 17.688 186.228 17.884 184.996 18.276C183.792 18.668 182.77 19.214 181.93 19.914L179.872 16.092C181.048 15.196 182.462 14.51 184.114 14.034C185.766 13.558 187.516 13.32 189.364 13.32ZM188.65 32.472C189.966 32.472 191.128 32.178 192.136 31.59C193.172 30.974 193.9 30.106 194.32 28.986V26.382H188.902C185.878 26.382 184.366 27.376 184.366 29.364C184.366 30.316 184.744 31.072 185.5 31.632C186.256 32.192 187.306 32.472 188.65 32.472ZM219.033 13.32C221.861 13.32 224.129 14.146 225.837 15.798C227.545 17.45 228.399 19.9 228.399 23.148V36H223.149V23.82C223.149 21.86 222.687 20.39 221.763 19.41C220.839 18.402 219.523 17.898 217.815 17.898C215.883 17.898 214.357 18.486 213.237 19.662C212.117 20.81 211.557 22.476 211.557 24.66V36H206.307V13.572H211.305V16.47C212.173 15.434 213.265 14.65 214.581 14.118C215.897 13.586 217.381 13.32 219.033 13.32ZM243.627 13.32C246.931 13.32 249.451 14.118 251.187 15.714C252.951 17.282 253.833 19.662 253.833 22.854V36H248.877V33.27C248.233 34.25 247.309 35.006 246.105 35.538C244.929 36.042 243.501 36.294 241.821 36.294C240.141 36.294 238.671 36.014 237.411 35.454C236.151 34.866 235.171 34.068 234.471 33.06C233.799 32.024 233.463 30.862 233.463 29.574C233.463 27.558 234.205 25.948 235.689 24.744C237.201 23.512 239.567 22.896 242.787 22.896H248.583V22.56C248.583 20.992 248.107 19.788 247.155 18.948C246.231 18.108 244.845 17.688 242.997 17.688C241.737 17.688 240.491 17.884 239.259 18.276C238.055 18.668 237.033 19.214 236.193 19.914L234.135 16.092C235.311 15.196 236.725 14.51 238.377 14.034C240.029 13.558 241.779 13.32 243.627 13.32ZM242.913 32.472C244.229 32.472 245.391 32.178 246.399 31.59C247.435 30.974 248.163 30.106 248.583 28.986V26.382H243.165C240.141 26.382 238.629 27.376 238.629 29.364C238.629 30.316 239.007 31.072 239.763 31.632C240.519 32.192 241.569 32.472 242.913 32.472ZM274.053 34.782C273.437 35.286 272.681 35.664 271.785 35.916C270.917 36.168 269.993 36.294 269.013 36.294C266.549 36.294 264.645 35.65 263.301 34.362C261.957 33.074 261.285 31.198 261.285 28.734V17.94H257.589V13.74H261.285V8.616H266.535V13.74H272.541V17.94H266.535V28.608C266.535 29.7 266.801 30.54 267.333 31.128C267.865 31.688 268.635 31.968 269.643 31.968C270.819 31.968 271.799 31.66 272.583 31.044L274.053 34.782ZM287.713 36.294C285.445 36.294 283.401 35.804 281.581 34.824C279.761 33.844 278.333 32.486 277.297 30.75C276.289 28.986 275.785 26.998 275.785 24.786C275.785 22.574 276.289 20.6 277.297 18.864C278.333 17.128 279.761 15.77 281.581 14.79C283.401 13.81 285.445 13.32 287.713 13.32C290.009 13.32 292.067 13.81 293.887 14.79C295.707 15.77 297.121 17.128 298.129 18.864C299.165 20.6 299.683 22.574 299.683 24.786C299.683 26.998 299.165 28.986 298.129 30.75C297.121 32.486 295.707 33.844 293.887 34.824C292.067 35.804 290.009 36.294 287.713 36.294ZM287.713 31.8C289.645 31.8 291.241 31.156 292.501 29.868C293.761 28.58 294.391 26.886 294.391 24.786C294.391 22.686 293.761 20.992 292.501 19.704C291.241 18.416 289.645 17.772 287.713 17.772C285.781 17.772 284.185 18.416 282.925 19.704C281.693 20.992 281.077 22.686 281.077 24.786C281.077 26.886 281.693 28.58 282.925 29.868C284.185 31.156 285.781 31.8 287.713 31.8ZM309.702 16.848C311.214 14.496 313.874 13.32 317.682 13.32V18.318C317.234 18.234 316.828 18.192 316.464 18.192C314.42 18.192 312.824 18.794 311.676 19.998C310.528 21.174 309.954 22.882 309.954 25.122V36H304.704V13.572H309.702V16.848ZM322.135 13.572H327.385V36H322.135V13.572ZM324.781 9.876C323.829 9.876 323.031 9.582 322.387 8.994C321.743 8.378 321.421 7.622 321.421 6.726C321.421 5.83 321.743 5.088 322.387 4.5C323.031 3.884 323.829 3.576 324.781 3.576C325.733 3.576 326.531 3.87 327.175 4.458C327.819 5.018 328.141 5.732 328.141 6.6C328.141 7.524 327.819 8.308 327.175 8.952C326.559 9.568 325.761 9.876 324.781 9.876ZM334.276 13.572H339.526V36H334.276V13.572ZM336.922 9.876C335.97 9.876 335.172 9.582 334.528 8.994C333.884 8.378 333.562 7.622 333.562 6.726C333.562 5.83 333.884 5.088 334.528 4.5C335.172 3.884 335.97 3.576 336.922 3.576C337.874 3.576 338.672 3.87 339.316 4.458C339.96 5.018 340.282 5.732 340.282 6.6C340.282 7.524 339.96 8.308 339.316 8.952C338.7 9.568 337.902 9.876 336.922 9.876ZM368.314 36.294C365.99 36.294 363.904 35.804 362.056 34.824C360.208 33.844 358.766 32.486 357.73 30.75C356.694 28.986 356.176 26.998 356.176 24.786C356.176 22.574 356.694 20.6 357.73 18.864C358.766 17.128 360.194 15.77 362.014 14.79C363.862 13.81 365.962 13.32 368.314 13.32C370.526 13.32 372.458 13.768 374.11 14.664C375.79 15.56 377.05 16.848 377.89 18.528L373.858 20.88C373.214 19.844 372.402 19.074 371.422 18.57C370.47 18.038 369.42 17.772 368.272 17.772C366.312 17.772 364.688 18.416 363.4 19.704C362.112 20.964 361.468 22.658 361.468 24.786C361.468 26.914 362.098 28.622 363.358 29.91C364.646 31.17 366.284 31.8 368.272 31.8C369.42 31.8 370.47 31.548 371.422 31.044C372.402 30.512 373.214 29.728 373.858 28.692L377.89 31.044C377.022 32.724 375.748 34.026 374.068 34.95C372.416 35.846 370.498 36.294 368.314 36.294ZM392.18 36.294C389.912 36.294 387.868 35.804 386.048 34.824C384.228 33.844 382.8 32.486 381.764 30.75C380.756 28.986 380.252 26.998 380.252 24.786C380.252 22.574 380.756 20.6 381.764 18.864C382.8 17.128 384.228 15.77 386.048 14.79C387.868 13.81 389.912 13.32 392.18 13.32C394.476 13.32 396.534 13.81 398.354 14.79C400.174 15.77 401.588 17.128 402.596 18.864C403.632 20.6 404.15 22.574 404.15 24.786C404.15 26.998 403.632 28.986 402.596 30.75C401.588 32.486 400.174 33.844 398.354 34.824C396.534 35.804 394.476 36.294 392.18 36.294ZM392.18 31.8C394.112 31.8 395.708 31.156 396.968 29.868C398.228 28.58 398.858 26.886 398.858 24.786C398.858 22.686 398.228 20.992 396.968 19.704C395.708 18.416 394.112 17.772 392.18 17.772C390.248 17.772 388.652 18.416 387.392 19.704C386.16 20.992 385.544 22.686 385.544 24.786C385.544 26.886 386.16 28.58 387.392 29.868C388.652 31.156 390.248 31.8 392.18 31.8ZM437.479 13.32C440.307 13.32 442.547 14.146 444.199 15.798C445.851 17.422 446.677 19.872 446.677 23.148V36H441.427V23.82C441.427 21.86 440.993 20.39 440.125 19.41C439.257 18.402 438.011 17.898 436.387 17.898C434.623 17.898 433.209 18.486 432.145 19.662C431.081 20.81 430.549 22.462 430.549 24.618V36H425.299V23.82C425.299 21.86 424.865 20.39 423.997 19.41C423.129 18.402 421.883 17.898 420.259 17.898C418.467 17.898 417.039 18.472 415.975 19.62C414.939 20.768 414.421 22.434 414.421 24.618V36H409.171V13.572H414.169V16.428C415.009 15.42 416.059 14.65 417.319 14.118C418.579 13.586 419.979 13.32 421.519 13.32C423.199 13.32 424.683 13.642 425.971 14.286C427.287 14.902 428.323 15.826 429.079 17.058C430.003 15.882 431.193 14.972 432.649 14.328C434.105 13.656 435.715 13.32 437.479 13.32Z" fill="#A97456"/>
<path d="M28.1112 55.8891C31.543 55.1756 33.5476 51.8798 33.5476 51.8798L34.0748 72.0285C34.0748 72.0285 32.1241 71.8548 30.5576 70.9752C29.4422 70.3489 28.3047 69.0399 27.3297 68.291C24.9852 66.4901 21.3157 65.3689 20.1604 64.8932C19.0051 64.4175 16.253 62.0391 16.253 62.0391C16.253 62.0391 12.6174 58.7772 11.8359 55.1756C11.0544 51.574 11.0884 48.9237 11.3602 47.9384C11.632 46.953 13.3989 41.5166 14.9618 36.6578C16.5248 31.799 15.6754 30.6778 15.6754 30.6778C15.6754 30.6778 14.8939 26.6344 10.9525 24.324C7.01109 22.0135 2.69594 20.9602 2.69594 20.9602C2.69594 20.9602 1.77853 19.3293 2.05035 17.7323C2.32217 16.1354 3.57934 15.6937 3.57934 15.6937C3.57934 15.6937 11.632 16.713 16.4229 20.9602C21.2137 25.2074 21.1797 31.2554 21.2137 31.6291C21.2477 32.0029 21.6868 32.8184 24.5095 32.9203C27.3323 33.0222 27.9752 31.6291 27.9752 31.6291L24.7134 38.6965C24.7134 38.6965 24.1018 38.0509 23.2863 37.881C22.4709 37.7111 21.2817 37.949 21.2817 37.949C21.2817 37.949 18.4955 38.6965 18.3936 45.6959C18.2916 52.6953 21.3157 53.8505 21.3157 53.8505C21.3157 53.8505 24.6795 56.6027 28.1112 55.8891Z" fill="url(#paint0_linear)"/>
<path d="M64.9944 59.5247C65.3682 61.2236 65.4701 62.6167 65.2663 64.2476C65.0624 65.8785 64.077 67.9512 62.9558 69.5821C61.8345 71.213 59.1163 72.0285 59.1163 72.0285H46.001V9.37384H54.9711C54.9711 9.37384 55.6149 9.5141 56.0244 10.3252C56.322 10.9149 56.4321 11.4125 56.4321 12.5338C56.4321 13.655 54.5293 15.3879 54.5293 15.3879C54.5293 15.3879 53.1363 16.747 52.6606 17.6983C52.1849 18.6497 52.8984 19.4652 52.8984 19.4652C52.8984 19.4652 53.6216 20.0838 55.107 21.198C56.581 22.3038 58.5421 23.5624 59.4221 24.324C61.189 25.853 64.111 28.877 64.8925 30.2701C65.674 31.6631 67.5169 34.7923 68.2563 37.0656C68.7452 38.5687 68.8332 40.0711 68.698 40.4633C68.3582 41.4487 67.6447 42.1962 67.2709 42.434C66.8972 42.6719 64.6207 43.6912 62.9558 44.7445C61.2909 45.7978 60.0677 48.1423 60.0677 48.1423C60.0677 48.1423 59.1163 50.6226 60.0677 52.3895C61.0191 54.1563 62.5141 55.0737 63.1597 55.7532C63.8052 56.4328 64.6207 57.8259 64.9944 59.5247Z" fill="#A97456"/>
<path d="M28.1872 59.5247C27.8134 61.2236 27.7115 62.6167 27.9154 64.2476C28.1192 65.8785 29.1046 67.9512 30.2259 69.5821C31.3471 71.213 34.0653 72.0285 34.0653 72.0285H47.1807V9.37384H38.2106C38.2106 9.37384 37.5667 9.5141 37.1573 10.3252C36.8596 10.9149 36.7495 11.4125 36.7495 12.5338C36.7495 13.655 38.6523 15.3879 38.6523 15.3879C38.6523 15.3879 40.0454 16.747 40.5211 17.6983C40.9967 18.6497 40.2832 19.4652 40.2832 19.4652C40.2832 19.4652 39.56 20.0838 38.0747 21.198C36.6006 22.3038 34.6396 23.5624 33.7595 24.324C31.9927 25.853 29.0706 28.877 28.2891 30.2701C27.5076 31.6631 25.6647 34.7923 24.9254 37.0656C24.4364 38.5687 24.3484 40.0711 24.4836 40.4633C24.8234 41.4487 25.5369 42.1962 25.9107 42.434C26.2845 42.6719 28.561 43.6912 30.2259 44.7445C31.8908 45.7978 33.1139 48.1423 33.1139 48.1423C33.1139 48.1423 34.0653 50.6226 33.1139 52.3895C32.1626 54.1563 30.6676 55.0737 30.022 55.7532C29.3764 56.4328 28.561 57.8259 28.1872 59.5247Z" fill="#A97456"/>
<rect x="36" y="9.00031" width="21" height="6" rx="3" fill="url(#paint1_linear)"/>
<rect x="28.7734" y="69.684" width="36.8317" height="4.41708" rx="2.20854" fill="url(#paint2_linear)"/>
<rect x="41.5498" y="78.9938" width="0.0679552" height="0.0679552" fill="#C4C4C4"/>
<path d="M46.6593 35.572L40.4956 46.0817C39.2004 48.3036 39.1003 51.1288 40.4956 53.5079C42.5931 57.0843 47.2588 58.3211 50.9168 56.2704C54.5748 54.2197 55.8399 49.6581 53.7424 46.0817L47.5786 35.572C47.375 35.2249 46.8629 35.2249 46.6593 35.572Z" fill="url(#paint3_linear)"/>
<defs>
<linearGradient id="paint0_linear" x1="2.29339" y1="18.398" x2="48.0849" y2="63.3336" gradientUnits="userSpaceOnUse">
<stop stop-color="#CF9D80"/>
<stop offset="1" stop-color="#CF9D80" stop-opacity="0.8"/>
</linearGradient>
<linearGradient id="paint1_linear" x1="36.1921" y1="9.28833" x2="37.7661" y2="18.7833" gradientUnits="userSpaceOnUse">
<stop stop-color="#CF9D80"/>
<stop offset="1" stop-color="#CF9D80" stop-opacity="0.8"/>
</linearGradient>
<linearGradient id="paint2_linear" x1="29.1103" y1="69.8961" x2="29.6077" y2="77.0435" gradientUnits="userSpaceOnUse">
<stop stop-color="#CF9D80"/>
<stop offset="1" stop-color="#CF9D80"/>
</linearGradient>
<linearGradient id="paint3_linear" x1="39.626" y1="36.3653" x2="57.1805" y2="57.4128" gradientUnits="userSpaceOnUse">
<stop stop-color="#CF9D80"/>
<stop offset="1" stop-color="#CF9D80" stop-opacity="0.8"/>
</linearGradient>
</defs>
</svg>
